<svg width="8" height="12" viewBox="0 0 8 12" fill="none" xmlns="http://www.w3.org/2000/svg">
<path d="M4.5 1.40723C4.5 1.13108 4.27614 0.907227 4 0.907227C3.72386 0.907227 3.5 1.13108 3.5 1.40723L4.5 1.40723ZM3.64645 11.3914C3.84171 11.5867 4.15829 11.5867 4.35355 11.3914L7.53553 8.20947C7.7308 8.01421 7.7308 7.69762 7.53553 7.50236C7.34027 7.3071 7.02369 7.3071 6.82843 7.50236L4 10.3308L1.17157 7.50236C0.976311 7.3071 0.659729 7.3071 0.464466 7.50236C0.269204 7.69762 0.269204 8.01421 0.464466 8.20947L3.64645 11.3914ZM3.5 1.40723L3.5 11.0379L4.5 11.0379L4.5 1.40723L3.5 1.40723Z" fill="black"/>
</svg>
